<svg width="684" height="423" viewBox="0 0 684 423" fill="none" xmlns="http://www.w3.org/2000/svg">
<g opacity="0.2">
<path d="M336.895 241.531C338.822 240.419 341.286 241.08 342.398 243.006C343.51 244.932 342.85 247.397 340.924 248.509C338.998 249.621 336.533 248.96 335.421 247.034C334.321 245.129 334.969 242.643 336.895 241.531Z" fill="url(#paint0_linear_2337_82)"/>
<path d="M418.34 199.96L417.673 198.804L340.622 243.289L341.289 244.445L418.34 199.96Z" fill="url(#paint1_linear_2337_82)"/>
<path d="M340.407 28.4981C342.333 27.386 344.798 28.0463 345.91 29.9726C347.022 31.8989 346.362 34.3634 344.436 35.4755C342.509 36.5876 340.045 35.9273 338.933 34.001C337.821 32.0747 338.481 29.6102 340.407 28.4981Z" fill="url(#paint2_linear_2337_82)"/>
<path d="M421.839 -13.0947L421.172 -14.2505L344.1 30.2474L344.767 31.4031L421.839 -13.0947Z" fill="url(#paint3_linear_2337_82)"/>
<path d="M447.438 24.5208C449.364 23.4087 451.829 24.069 452.941 25.9953C454.053 27.9216 453.392 30.3861 451.466 31.4982C449.54 32.6103 447.075 31.95 445.963 30.0237C444.851 28.0974 445.512 25.6329 447.438 24.5208Z" fill="url(#paint4_linear_2337_82)"/>
<path d="M528.882 -17.0508L528.215 -18.2065L451.164 26.2789L451.831 27.4347L528.882 -17.0508Z" fill="url(#paint5_linear_2337_82)"/>
<path d="M449.855 69.584C451.781 68.4719 454.245 69.1323 455.358 71.0585C456.47 72.9848 455.809 75.4493 453.883 76.5614C451.957 77.6736 449.492 77.0132 448.38 75.0869C447.259 73.1944 447.907 70.7085 449.855 69.584Z" fill="url(#paint6_linear_2337_82)"/>
<path d="M531.278 28.0249L530.611 26.8691L453.538 71.367L454.205 72.5227L531.278 28.0249Z" fill="url(#paint7_linear_2337_82)"/>
<path d="M283.712 241.302C285.638 240.19 288.103 240.851 289.215 242.777C290.327 244.703 289.667 247.168 287.74 248.28C285.814 249.392 283.35 248.731 282.237 246.805C281.125 244.879 281.786 242.414 283.712 241.302Z" fill="url(#paint8_linear_2337_82)"/>
<path d="M365.157 199.731L364.489 198.575L287.438 243.06L288.105 244.216L365.157 199.731Z" fill="url(#paint9_linear_2337_82)"/>
<path d="M539.3 165.738C541.227 164.626 543.691 165.286 544.803 167.213C545.915 169.139 545.255 171.603 543.329 172.715C541.402 173.828 538.938 173.167 537.826 171.241C536.714 169.315 537.374 166.85 539.3 165.738Z" fill="url(#paint10_linear_2337_82)"/>
<path d="M620.711 124.158L620.044 123.002L542.993 167.487L543.66 168.643L620.711 124.158Z" fill="url(#paint11_linear_2337_82)"/>
<path d="M487.13 67.4686C489.057 66.3564 491.521 67.0168 492.633 68.943C493.745 70.8693 493.085 73.3338 491.159 74.446C489.232 75.5581 486.768 74.8977 485.656 72.9714C484.544 71.0452 485.204 68.5807 487.13 67.4686Z" fill="url(#paint12_linear_2337_82)"/>
<path d="M530.028 48.1521L529.361 46.9963L490.835 69.2391L491.502 70.3948L530.028 48.1521Z" fill="url(#paint13_linear_2337_82)"/>
<path d="M369.404 310.886C371.33 309.774 373.794 310.435 374.907 312.361C376.019 314.287 375.358 316.752 373.432 317.864C371.506 318.976 369.041 318.315 367.929 316.389C366.829 314.484 367.477 311.998 369.404 310.886Z" fill="url(#paint14_linear_2337_82)"/>
<path d="M412.323 291.558L411.655 290.402L373.13 312.645L373.797 313.8L412.323 291.558Z" fill="url(#paint15_linear_2337_82)"/>
<path d="M457.662 -7.69356C459.588 -8.8057 462.052 -8.14534 463.164 -6.21907C464.277 -4.29279 463.616 -1.82829 461.69 -0.716156C459.764 0.395981 457.299 -0.264378 456.187 -2.19066C455.075 -4.11693 455.735 -6.58142 457.662 -7.69356Z" fill="url(#paint16_linear_2337_82)"/>
<path d="M576.163 74.282C578.089 73.1699 580.553 73.8302 581.666 75.7565C582.778 77.6828 582.117 80.1473 580.191 81.2594C578.265 82.3716 575.8 81.7112 574.688 79.7849C573.567 77.8924 574.236 75.3942 576.163 74.282Z" fill="url(#paint17_linear_2337_82)"/>
<path d="M619.06 54.9656L618.393 53.8098L579.868 76.0526L580.535 77.2083L619.06 54.9656Z" fill="url(#paint18_linear_2337_82)"/>
<path d="M266.194 188.52C268.12 187.407 270.585 188.068 271.697 189.994C272.809 191.92 272.149 194.385 270.222 195.497C268.296 196.609 265.832 195.949 264.72 194.022C263.607 192.096 264.268 189.632 266.194 188.52Z" fill="url(#paint19_linear_2337_82)"/>
<path d="M347.626 146.927L346.959 145.771L269.887 190.269L270.554 191.425L347.626 146.927Z" fill="url(#paint20_linear_2337_82)"/>
<path d="M365.062 265.307C366.989 264.195 369.453 264.855 370.565 266.782C371.677 268.708 371.017 271.172 369.091 272.285C367.164 273.397 364.7 272.736 363.588 270.81C362.454 268.896 363.115 266.432 365.062 265.307Z" fill="url(#paint21_linear_2337_82)"/>
<path d="M446.473 223.727L445.806 222.571L368.733 267.069L369.401 268.225L446.473 223.727Z" fill="url(#paint22_linear_2337_82)"/>
<path d="M73.8379 209.256C75.7642 208.144 78.2286 208.804 79.3408 210.73C80.4529 212.656 79.7926 215.121 77.8663 216.233C75.94 217.345 73.4755 216.685 72.3634 214.759C71.2298 212.845 71.9116 210.368 73.8379 209.256Z" fill="url(#paint23_linear_2337_82)"/>
<path d="M344.088 58.6487L343.421 57.4929L77.5303 211.005L78.1975 212.161L344.088 58.6487Z" fill="url(#paint24_linear_2337_82)"/>
<path d="M42.3044 122.016C44.2307 120.904 46.6952 121.564 47.8073 123.49C48.9195 125.416 48.2591 127.881 46.3328 128.993C44.4065 130.105 41.9421 129.445 40.8299 127.519C39.6964 125.605 40.3567 123.14 42.3044 122.016Z" fill="url(#paint25_linear_2337_82)"/>
<path d="M454.791 -110.683L454.123 -111.839L45.9878 123.799L46.6551 124.954L454.791 -110.683Z" fill="url(#paint26_linear_2337_82)"/>
<path d="M311.49 269.298C313.416 268.186 315.881 268.846 316.993 270.772C318.105 272.699 317.445 275.163 315.518 276.275C313.592 277.387 311.128 276.727 310.016 274.801C308.903 272.875 309.564 270.41 311.49 269.298Z" fill="url(#paint27_linear_2337_82)"/>
<path d="M581.74 118.691L581.073 117.535L315.182 271.047L315.85 272.203L581.74 118.691Z" fill="url(#paint28_linear_2337_82)"/>
<path d="M179.301 220.309C181.228 219.197 183.692 219.857 184.804 221.783C185.916 223.71 185.256 226.174 183.33 227.286C181.404 228.398 178.939 227.738 177.827 225.812C176.693 223.898 177.375 221.421 179.301 220.309Z" fill="url(#paint29_linear_2337_82)"/>
<path d="M449.543 69.7356L448.875 68.5798L182.985 222.092L183.652 223.248L449.543 69.7356Z" fill="url(#paint30_linear_2337_82)"/>
<path d="M118.601 65.6946C120.527 64.5825 122.992 65.2428 124.104 67.1691C125.216 69.0954 124.556 71.5599 122.629 72.672C120.703 73.7842 118.238 73.1238 117.126 71.1975C116.014 69.2713 116.675 66.8068 118.601 65.6946Z" fill="url(#paint31_linear_2337_82)"/>
<path d="M388.851 -84.9124L388.184 -86.0681L122.293 67.4439L122.961 68.5996L388.851 -84.9124Z" fill="url(#paint32_linear_2337_82)"/>
<path d="M428.186 175.098C430.112 173.986 432.577 174.646 433.689 176.573C434.801 178.499 434.141 180.963 432.214 182.076C430.288 183.188 427.823 182.527 426.711 180.601C425.578 178.687 426.238 176.223 428.186 175.098Z" fill="url(#paint33_linear_2337_82)"/>
<path d="M579.661 93.0942L578.994 91.9385L431.891 176.869L432.558 178.024L579.661 93.0942Z" fill="url(#paint34_linear_2337_82)"/>
<path d="M260.212 65.0672C262.139 63.9551 264.603 64.6154 265.715 66.5417C266.827 68.468 266.167 70.9325 264.241 72.0446C262.315 73.1567 259.85 72.4964 258.738 70.5701C257.626 68.6438 258.286 66.1793 260.212 65.0672Z" fill="url(#paint35_linear_2337_82)"/>
<path d="M411.688 -16.9368L411.021 -18.0925L263.917 66.8377L264.584 67.9934L411.688 -16.9368Z" fill="url(#paint36_linear_2337_82)"/>
</g>
<defs>
<linearGradient id="paint0_linear_2337_82" x1="358.561" y1="233.694" x2="419.2" y2="198.684" gradientUnits="userSpaceOnUse">
<stop stop-color="#A4FFFF"/>
<stop offset="1" stop-color="#A4FFFF" stop-opacity="0"/>
</linearGradient>
<linearGradient id="paint1_linear_2337_82" x1="358.564" y1="233.696" x2="419.201" y2="198.687" gradientUnits="userSpaceOnUse">
<stop stop-color="#A4FFFF"/>
<stop offset="1" stop-color="#A4FFFF" stop-opacity="0"/>
</linearGradient>
<linearGradient id="paint2_linear_2337_82" x1="362.066" y1="20.6448" x2="422.723" y2="-14.3757" gradientUnits="userSpaceOnUse">
<stop stop-color="#A4FFFF"/>
<stop offset="1" stop-color="#A4FFFF" stop-opacity="0"/>
</linearGradient>
<linearGradient id="paint3_linear_2337_82" x1="362.059" y1="20.6484" x2="422.699" y2="-14.3622" gradientUnits="userSpaceOnUse">
<stop stop-color="#A4FFFF"/>
<stop offset="1" stop-color="#A4FFFF" stop-opacity="0"/>
</linearGradient>
<linearGradient id="paint4_linear_2337_82" x1="469.097" y1="16.6862" x2="529.736" y2="-18.3238" gradientUnits="userSpaceOnUse">
<stop stop-color="#A4FFFF"/>
<stop offset="1" stop-color="#A4FFFF" stop-opacity="0"/>
</linearGradient>
<linearGradient id="paint5_linear_2337_82" x1="469.098" y1="16.6851" x2="529.735" y2="-18.3238" gradientUnits="userSpaceOnUse">
<stop stop-color="#A4FFFF"/>
<stop offset="1" stop-color="#A4FFFF" stop-opacity="0"/>
</linearGradient>
<linearGradient id="paint6_linear_2337_82" x1="471.506" y1="61.7572" x2="532.147" y2="26.7462" gradientUnits="userSpaceOnUse">
<stop stop-color="#A4FFFF"/>
<stop offset="1" stop-color="#A4FFFF" stop-opacity="0"/>
</linearGradient>
<linearGradient id="paint7_linear_2337_82" x1="471.505" y1="61.7575" x2="532.144" y2="26.7478" gradientUnits="userSpaceOnUse">
<stop stop-color="#A4FFFF"/>
<stop offset="1" stop-color="#A4FFFF" stop-opacity="0"/>
</linearGradient>
<linearGradient id="paint8_linear_2337_82" x1="305.368" y1="233.467" x2="365.99" y2="198.467" gradientUnits="userSpaceOnUse">
<stop stop-color="#A4FFFF"/>
<stop offset="1" stop-color="#A4FFFF" stop-opacity="0"/>
</linearGradient>
<linearGradient id="paint9_linear_2337_82" x1="305.374" y1="233.465" x2="366.011" y2="198.456" gradientUnits="userSpaceOnUse">
<stop stop-color="#A4FFFF"/>
<stop offset="1" stop-color="#A4FFFF" stop-opacity="0"/>
</linearGradient>
<linearGradient id="paint10_linear_2337_82" x1="560.95" y1="157.891" x2="621.589" y2="122.882" gradientUnits="userSpaceOnUse">
<stop stop-color="#A4FFFF"/>
<stop offset="1" stop-color="#A4FFFF" stop-opacity="0"/>
</linearGradient>
<linearGradient id="paint11_linear_2337_82" x1="560.951" y1="157.89" x2="621.588" y2="122.881" gradientUnits="userSpaceOnUse">
<stop stop-color="#A4FFFF"/>
<stop offset="1" stop-color="#A4FFFF" stop-opacity="0"/>
</linearGradient>
<linearGradient id="paint12_linear_2337_82" x1="508.782" y1="59.6327" x2="569.421" y2="24.6229" gradientUnits="userSpaceOnUse">
<stop stop-color="#A4FFFF"/>
<stop offset="1" stop-color="#A4FFFF" stop-opacity="0"/>
</linearGradient>
<linearGradient id="paint13_linear_2337_82" x1="499.97" y1="64.7217" x2="530.289" y2="47.2169" gradientUnits="userSpaceOnUse">
<stop stop-color="#A4FFFF"/>
<stop offset="1" stop-color="#A4FFFF" stop-opacity="0"/>
</linearGradient>
<linearGradient id="paint14_linear_2337_82" x1="391.071" y1="303.05" x2="451.71" y2="268.04" gradientUnits="userSpaceOnUse">
<stop stop-color="#A4FFFF"/>
<stop offset="1" stop-color="#A4FFFF" stop-opacity="0"/>
</linearGradient>
<linearGradient id="paint15_linear_2337_82" x1="382.258" y1="308.138" x2="412.577" y2="290.633" gradientUnits="userSpaceOnUse">
<stop stop-color="#A4FFFF"/>
<stop offset="1" stop-color="#A4FFFF" stop-opacity="0"/>
</linearGradient>
<linearGradient id="paint16_linear_2337_82" x1="479.333" y1="-15.5349" x2="539.991" y2="-50.5555" gradientUnits="userSpaceOnUse">
<stop stop-color="#A4FFFF"/>
<stop offset="1" stop-color="#A4FFFF" stop-opacity="0"/>
</linearGradient>
<linearGradient id="paint17_linear_2337_82" x1="597.817" y1="66.454" x2="658.456" y2="31.444" gradientUnits="userSpaceOnUse">
<stop stop-color="#A4FFFF"/>
<stop offset="1" stop-color="#A4FFFF" stop-opacity="0"/>
</linearGradient>
<linearGradient id="paint18_linear_2337_82" x1="589.006" y1="71.5433" x2="619.323" y2="54.0402" gradientUnits="userSpaceOnUse">
<stop stop-color="#A4FFFF"/>
<stop offset="1" stop-color="#A4FFFF" stop-opacity="0"/>
</linearGradient>
<linearGradient id="paint19_linear_2337_82" x1="287.85" y1="180.68" x2="348.489" y2="145.67" gradientUnits="userSpaceOnUse">
<stop stop-color="#A4FFFF"/>
<stop offset="1" stop-color="#A4FFFF" stop-opacity="0"/>
</linearGradient>
<linearGradient id="paint20_linear_2337_82" x1="287.849" y1="180.679" x2="348.488" y2="145.67" gradientUnits="userSpaceOnUse">
<stop stop-color="#A4FFFF"/>
<stop offset="1" stop-color="#A4FFFF" stop-opacity="0"/>
</linearGradient>
<linearGradient id="paint21_linear_2337_82" x1="386.712" y1="257.467" x2="447.369" y2="222.446" gradientUnits="userSpaceOnUse">
<stop stop-color="#A4FFFF"/>
<stop offset="1" stop-color="#A4FFFF" stop-opacity="0"/>
</linearGradient>
<linearGradient id="paint22_linear_2337_82" x1="386.707" y1="257.471" x2="447.345" y2="222.462" gradientUnits="userSpaceOnUse">
<stop stop-color="#A4FFFF"/>
<stop offset="1" stop-color="#A4FFFF" stop-opacity="0"/>
</linearGradient>
<linearGradient id="paint23_linear_2337_82" x1="110.052" y1="193.009" x2="218.044" y2="130.659" gradientUnits="userSpaceOnUse">
<stop stop-color="#A4FFFF"/>
<stop offset="1" stop-color="#A4FFFF" stop-opacity="0"/>
</linearGradient>
<linearGradient id="paint24_linear_2337_82" x1="137.074" y1="177.409" x2="335.73" y2="62.7147" gradientUnits="userSpaceOnUse">
<stop stop-color="#A4FFFF"/>
<stop offset="1" stop-color="#A4FFFF" stop-opacity="0"/>
</linearGradient>
<linearGradient id="paint25_linear_2337_82" x1="78.516" y1="105.777" x2="186.508" y2="43.4274" gradientUnits="userSpaceOnUse">
<stop stop-color="#A4FFFF"/>
<stop offset="1" stop-color="#A4FFFF" stop-opacity="0"/>
</linearGradient>
<linearGradient id="paint26_linear_2337_82" x1="137.215" y1="71.8883" x2="442.144" y2="-104.163" gradientUnits="userSpaceOnUse">
<stop stop-color="#A4FFFF"/>
<stop offset="1" stop-color="#A4FFFF" stop-opacity="0"/>
</linearGradient>
<linearGradient id="paint27_linear_2337_82" x1="347.703" y1="253.04" x2="455.695" y2="190.691" gradientUnits="userSpaceOnUse">
<stop stop-color="#A4FFFF"/>
<stop offset="1" stop-color="#A4FFFF" stop-opacity="0"/>
</linearGradient>
<linearGradient id="paint28_linear_2337_82" x1="374.725" y1="237.44" x2="573.381" y2="122.746" gradientUnits="userSpaceOnUse">
<stop stop-color="#A4FFFF"/>
<stop offset="1" stop-color="#A4FFFF" stop-opacity="0"/>
</linearGradient>
<linearGradient id="paint29_linear_2337_82" x1="215.518" y1="204.068" x2="323.51" y2="141.718" gradientUnits="userSpaceOnUse">
<stop stop-color="#A4FFFF"/>
<stop offset="1" stop-color="#A4FFFF" stop-opacity="0"/>
</linearGradient>
<linearGradient id="paint30_linear_2337_82" x1="242.542" y1="188.466" x2="441.196" y2="73.7732" gradientUnits="userSpaceOnUse">
<stop stop-color="#A4FFFF"/>
<stop offset="1" stop-color="#A4FFFF" stop-opacity="0"/>
</linearGradient>
<linearGradient id="paint31_linear_2337_82" x1="154.817" y1="49.445" x2="262.81" y2="-12.9047" gradientUnits="userSpaceOnUse">
<stop stop-color="#A4FFFF"/>
<stop offset="1" stop-color="#A4FFFF" stop-opacity="0"/>
</linearGradient>
<linearGradient id="paint32_linear_2337_82" x1="181.839" y1="33.8437" x2="380.495" y2="-80.8503" gradientUnits="userSpaceOnUse">
<stop stop-color="#A4FFFF"/>
<stop offset="1" stop-color="#A4FFFF" stop-opacity="0"/>
</linearGradient>
<linearGradient id="paint33_linear_2337_82" x1="464.408" y1="158.85" x2="572.433" y2="96.4815" gradientUnits="userSpaceOnUse">
<stop stop-color="#A4FFFF"/>
<stop offset="1" stop-color="#A4FFFF" stop-opacity="0"/>
</linearGradient>
<linearGradient id="paint34_linear_2337_82" x1="464.967" y1="158.527" x2="574.879" y2="95.0696" gradientUnits="userSpaceOnUse">
<stop stop-color="#A4FFFF"/>
<stop offset="1" stop-color="#A4FFFF" stop-opacity="0"/>
</linearGradient>
<linearGradient id="paint35_linear_2337_82" x1="296.43" y1="48.8229" x2="404.39" y2="-13.5078" gradientUnits="userSpaceOnUse">
<stop stop-color="#A4FFFF"/>
<stop offset="1" stop-color="#A4FFFF" stop-opacity="0"/>
</linearGradient>
<linearGradient id="paint36_linear_2337_82" x1="297.01" y1="48.4879" x2="406.921" y2="-14.9692" gradientUnits="userSpaceOnUse">
<stop stop-color="#A4FFFF"/>
<stop offset="1" stop-color="#A4FFFF" stop-opacity="0"/>
</linearGradient>
</defs>
</svg>
